<svg width="14" height="13" viewBox="0 0 14 13" fill="none" xmlns="http://www.w3.org/2000/svg">
<path d="M4.375 10.25C3.6875 10.25 3.13125 10.8125 3.13125 11.5C3.13125 12.1875 3.6875 12.75 4.375 12.75C5.0625 12.75 5.625 12.1875 5.625 11.5C5.625 10.8125 5.0625 10.25 4.375 10.25ZM0.625 0.25V1.5H1.875L4.125 6.24375L3.28125 7.775C3.18125 7.95 3.125 8.15625 3.125 8.375C3.125 9.0625 3.6875 9.625 4.375 9.625H11.875V8.375H4.6375C4.55 8.375 4.48125 8.30625 4.48125 8.21875L4.5 8.14375L5.0625 7.125H9.71875C10.1875 7.125 10.6 6.86875 10.8125 6.48125L13.05 2.425C13.1 2.3375 13.125 2.23125 13.125 2.125C13.125 1.78125 12.8438 1.5 12.5 1.5H3.25625L2.66875 0.25H0.625ZM10.625 10.25C9.9375 10.25 9.38125 10.8125 9.38125 11.5C9.38125 12.1875 9.9375 12.75 10.625 12.75C11.3125 12.75 11.875 12.1875 11.875 11.5C11.875 10.8125 11.3125 10.25 10.625 10.25Z" fill="#F7F7F7"/>
</svg>
