<svg width="141" height="30" viewBox="0 0 141 30" fill="none" xmlns="http://www.w3.org/2000/svg">
<path d="M12.7134 0.999998C15.1934 0.999998 17.3401 1.41333 19.1534 2.24C20.9934 3.06667 22.4068 4.24 23.3934 5.76C24.3801 7.28 24.8734 9.08 24.8734 11.16C24.8734 13.2133 24.3801 15.0133 23.3934 16.56C22.4068 18.08 20.9934 19.2533 19.1534 20.08C17.3401 20.88 15.1934 21.28 12.7134 21.28H7.07344V29H0.593438V0.999998H12.7134ZM12.3534 16C14.3001 16 15.7801 15.5867 16.7934 14.76C17.8068 13.9067 18.3134 12.7067 18.3134 11.16C18.3134 9.58667 17.8068 8.38667 16.7934 7.56C15.7801 6.70667 14.3001 6.28 12.3534 6.28H7.07344V16H12.3534ZM52.575 26.6C51.2417 27.5067 49.5617 28.2133 47.535 28.72C45.535 29.2267 43.4017 29.48 41.135 29.48C38.3083 29.48 35.9083 29.1333 33.935 28.44C31.9617 27.72 30.4683 26.7333 29.455 25.48C28.4417 24.2 27.935 22.7467 27.935 21.12C27.935 19.6267 28.3483 18.3067 29.175 17.16C30.0017 16.0133 31.135 15.16 32.575 14.6C31.4817 14.0133 30.6283 13.2133 30.015 12.2C29.4283 11.1867 29.135 10.0533 29.135 8.8C29.135 7.28 29.6017 5.89333 30.535 4.64C31.4683 3.38667 32.8817 2.38667 34.775 1.64C36.6683 0.893333 38.9883 0.52 41.735 0.52C43.5483 0.52 45.3217 0.706666 47.055 1.08C48.7883 1.42666 50.295 1.90666 51.575 2.52L49.775 7.48C47.3217 6.33333 44.7217 5.76 41.975 5.76C39.895 5.76 38.3217 6.08 37.255 6.72C36.215 7.33333 35.695 8.17333 35.695 9.24C35.695 10.2267 36.0417 10.9867 36.735 11.52C37.455 12.0267 38.535 12.28 39.975 12.28H47.615V17.4H39.575C37.9483 17.4 36.695 17.68 35.815 18.24C34.935 18.8 34.495 19.6133 34.495 20.68C34.495 21.8 35.055 22.68 36.175 23.32C37.3217 23.9333 39.0683 24.24 41.415 24.24C43.0683 24.24 44.7217 24.0267 46.375 23.6C48.0283 23.1467 49.4283 22.52 50.575 21.72L52.575 26.6Z" fill="#7E52A0"/>
<path d="M76.7747 8.84C74.3747 7.45333 71.8014 6.56 69.0547 6.16V29H62.5747V6.16C59.828 6.56 57.2414 7.45333 54.8147 8.84L52.6147 4C54.5347 2.85333 56.6147 1.98666 58.8547 1.4C61.0947 0.813332 63.4014 0.52 65.7747 0.52C68.1747 0.52 70.4947 0.813332 72.7347 1.4C75.0014 1.98666 77.0814 2.85333 78.9747 4L76.7747 8.84ZM99.7225 29L94.3225 21.2H94.0025H88.3625V29H81.8825V0.999998H94.0025C96.4825 0.999998 98.6292 1.41333 100.443 2.24C102.283 3.06667 103.696 4.24 104.683 5.76C105.669 7.28 106.163 9.08 106.163 11.16C106.163 13.24 105.656 15.04 104.643 16.56C103.656 18.0533 102.243 19.2 100.403 20L106.683 29H99.7225ZM99.6025 11.16C99.6025 9.58667 99.0958 8.38667 98.0825 7.56C97.0692 6.70667 95.5892 6.28 93.6425 6.28H88.3625V16.04H93.6425C95.5892 16.04 97.0692 15.6133 98.0825 14.76C99.0958 13.9067 99.6025 12.7067 99.6025 11.16ZM124.857 29.48C121.95 29.48 119.323 28.8533 116.977 27.6C114.657 26.3467 112.83 24.6267 111.497 22.44C110.19 20.2267 109.537 17.7467 109.537 15C109.537 12.2533 110.19 9.78667 111.497 7.6C112.83 5.38667 114.657 3.65333 116.977 2.4C119.323 1.14667 121.95 0.52 124.857 0.52C127.763 0.52 130.377 1.14667 132.697 2.4C135.017 3.65333 136.843 5.38667 138.177 7.6C139.51 9.78667 140.177 12.2533 140.177 15C140.177 17.7467 139.51 20.2267 138.177 22.44C136.843 24.6267 135.017 26.3467 132.697 27.6C130.377 28.8533 127.763 29.48 124.857 29.48ZM124.857 23.96C126.51 23.96 128.003 23.5867 129.337 22.84C130.67 22.0667 131.71 21 132.457 19.64C133.23 18.28 133.617 16.7333 133.617 15C133.617 13.2667 133.23 11.72 132.457 10.36C131.71 9 130.67 7.94667 129.337 7.2C128.003 6.42667 126.51 6.04 124.857 6.04C123.203 6.04 121.71 6.42667 120.377 7.2C119.043 7.94667 117.99 9 117.217 10.36C116.47 11.72 116.097 13.2667 116.097 15C116.097 16.7333 116.47 18.28 117.217 19.64C117.99 21 119.043 22.0667 120.377 22.84C121.71 23.5867 123.203 23.96 124.857 23.96Z" fill="#2A9134"/>
</svg>
